# Blender v2.69 (sub 0) OBJ File: 'rocket.blend'
# www.blender.org
o Cube
v 1.488946 -0.497838 -0.763460
v 1.488946 -0.497838 1.236540
v -5.413784 -0.497838 1.236540
v -5.413784 -0.497838 -0.763461
v 1.488947 1.502162 -0.763460
v 1.488946 1.502162 1.236540
v -5.413784 1.502162 1.236539
v -5.413784 1.502162 -0.763460
v 3.763754 0.319526 0.053904
v 3.763754 0.319526 0.419176
v 3.763754 0.684798 0.053904
v 3.763754 0.684798 0.419177
v -5.876131 -1.161638 1.900339
v -5.876130 -1.161638 -1.427260
v -5.876131 2.165962 1.900339
v -5.876130 2.165962 -1.427260
v -5.385566 -0.337648 1.076350
v -5.385565 -0.337648 -0.603271
v -5.385566 1.341972 1.076350
v -5.385565 1.341972 -0.603271
v -0.958102 0.211171 -0.763460
v -2.966735 0.211171 -0.763460
v -0.958102 0.793153 -0.763460
v -2.966735 0.793153 -0.763460
v -1.692079 0.423834 -5.558006
v -2.232759 0.423834 -5.558006
v -1.692079 0.580491 -5.558006
v -2.232759 0.580491 -5.558006
v -0.940936 0.206197 1.236540
v -2.983902 0.206197 1.236540
v -0.940936 0.798127 1.236540
v -2.983902 0.798127 1.236540
v -1.660164 0.414587 5.916146
v -2.264674 0.414587 5.916146
v -1.660164 0.589738 5.916146
v -2.264674 0.589738 5.916146
vn 0.212104 -0.691000 -0.691000
vn 0.212104 -0.691000 0.691000
vn 0.675344 -0.521470 -0.521470
vn 0.212104 0.691000 -0.691000
vn 0.675344 0.521470 -0.521470
vn 0.212104 0.691000 0.691000
vn 0.675344 0.521470 0.521470
vn 0.278481 0.261513 0.924131
vn -0.306101 0.673147 0.673147
vn -0.278603 0.261666 -0.924070
vn -0.306070 0.673147 -0.673147
vn -0.957671 -0.203497 -0.203497
vn 0.675344 -0.521470 0.521470
vn -0.306070 -0.673147 0.673147
vn -0.306101 -0.673147 -0.673147
vn -0.957671 0.203497 -0.203497
vn -0.957671 0.203497 0.203497
vn -0.957671 -0.203497 0.203497
vn 0.278603 0.261666 -0.924070
vn -0.529466 0.570879 -0.627461
vn -0.278603 -0.261666 -0.924070
vn 0.278603 -0.261666 -0.924070
vn 0.529466 0.570879 -0.627461
vn 0.529466 -0.570879 -0.627461
vn -0.529466 -0.570879 -0.627461
vn -0.278481 0.261513 0.924131
vn 0.529252 0.570849 0.627674
vn 0.278481 -0.261513 0.924131
vn -0.278481 -0.261513 0.924131
vn 0.529252 -0.570849 0.627674
vn -0.529252 -0.570849 0.627674
vn -0.529252 0.570849 0.627674
vn 0.748955 0.468520 -0.468520
vn 0.748955 -0.468520 -0.468520
vn 0.748955 -0.468520 0.468520
vn 0.748955 0.468520 0.468520
s 1
f 1//1 2//2 4//3
f 5//4 8//5 6//6
f 6//6 7//7 31//8
f 7//7 8//5 15//9
f 8//5 5//4 24//10
f 15//9 16//11 19//12
f 8//5 4//3 16//11
f 3//13 7//7 13//14
f 4//3 3//13 14//15
f 17//16 19//12 18//17
f 16//11 14//15 20//18
f 13//14 15//9 17//16
f 14//15 13//14 18//17
f 24//10 23//19 28//20
f 4//3 8//5 22//21
f 5//4 1//1 23//19
f 1//1 4//3 21//22
f 27//23 25//24 28//20
f 22//21 24//10 26//25
f 23//19 21//22 27//23
f 21//22 22//21 25//24
f 31//8 32//26 35//27
f 7//7 3//13 32//26
f 2//2 6//6 29//28
f 3//13 2//2 30//29
f 33//30 35//27 34//31
f 32//26 30//29 36//32
f 29//28 31//8 33//30
f 30//29 29//28 34//31
f 2//2 3//13 4//3
f 8//5 7//7 6//6
f 7//7 32//26 31//8
f 8//5 16//11 15//9
f 5//4 23//19 24//10
f 16//11 20//18 19//12
f 4//3 14//15 16//11
f 7//7 15//9 13//14
f 3//13 13//14 14//15
f 19//12 20//18 18//17
f 14//15 18//17 20//18
f 15//9 19//12 17//16
f 13//14 17//16 18//17
f 23//19 27//23 28//20
f 8//5 24//10 22//21
f 1//1 21//22 23//19
f 4//3 22//21 21//22
f 25//24 26//25 28//20
f 24//10 28//20 26//25
f 21//22 25//24 27//23
f 22//21 26//25 25//24
f 32//26 36//32 35//27
f 3//13 30//29 32//26
f 6//6 31//8 29//28
f 2//2 29//28 30//29
f 35//27 36//32 34//31
f 30//29 34//31 36//32
f 31//8 35//27 33//30
f 29//28 33//30 34//31
f 5//4 6//6 11//33
f 9//34 11//33 10//35
f 6//6 2//2 12//36
f 1//1 5//4 9//34
f 2//2 1//1 10//35
f 6//6 12//36 11//33
f 11//33 12//36 10//35
f 2//2 10//35 12//36
f 5//4 11//33 9//34
f 1//1 9//34 10//35
